# xmcd
#
# Track frame offsets:
#	183
#	22380
#	40808
#
# Disc length: 835 seconds
#
# Revision: 2
# Processed by: cddbd v1.5.2PL0 Copyright (c) Steve Scherf et al.
# Submitted via: audiograbber 1.83.01
#
DISCID=22034103
DTITLE=Jayhawks, The - Crowded In The Wings [EP]
DYEAR=1992
DGENRE=Folk Rock
TTITLE0=Crowded In The Wings
TTITLE1=Two Angels
TTITLE2=Clouds
EXTD=
EXTT0=
EXTT1=
EXTT2=
PLAYORDER=
